Coordinates
version=1
nRows=16
nColumns=40
inDegrees=yes

Units are S.I. units (second, meters, Newtons, ...)
Angles are in degrees.

endheader
time	pelvis_tilt	pelvis_list	pelvis_rotation	pelvis_tx	pelvis_ty	pelvis_tz	hip_flexion_r	hip_adduction_r	hip_rotation_r	knee_angle_r	knee_angle_r_beta	ankle_angle_r	subtalar_angle_r	mtp_angle_r	hip_flexion_l	hip_adduction_l	hip_rotation_l	knee_angle_l	knee_angle_l_beta	ankle_angle_l	subtalar_angle_l	mtp_angle_l	lumbar_extension	lumbar_bending	lumbar_rotation	arm_flex_r	arm_add_r	arm_rot_r	elbow_flex_r	pro_sup_r	wrist_flex_r	wrist_dev_r	arm_flex_l	arm_add_l	arm_rot_l	elbow_flex_l	pro_sup_l	wrist_flex_l	wrist_dev_l
     11.36250000	     -1.06689167	     -2.61132924	      2.48077362	      0.87127208	      0.91935385	      0.45095620	      2.22522318	     -1.50262185	     -9.45705605	     33.10911188	     33.10911188	     17.57773751	     -9.61925434	     -7.78160716	     25.02409597	     -3.41112484	     -4.23496857	     27.93421467	     27.93421467	      7.86790208	    -16.18005056	      4.52603974	     -7.48486750	      3.97112878	      3.11145399	     21.82549463	    -17.39749949	     -4.05664098	     98.56453260	     44.23581260	      0.00000000	      0.00000000	     -4.38887934	     -8.80140398	      6.08536911	     24.87114903	     45.08483156	      0.00000000	      0.00000000
     11.37457143	     -1.07624538	     -2.38445224	      2.44130018	      0.87083440	      0.92020143	      0.44847734	      3.79484867	     -2.16753122	     -9.22254466	     36.42976356	     36.42976356	     14.10612469	    -12.93500665	    -13.39453716	     24.33741711	     -3.04856898	     -4.46251543	     27.62717260	     27.62717260	      8.11308461	    -16.10899078	      3.59960478	     -7.39039169	      3.63676064	      3.22141205	     19.58813467	    -17.61184124	     -4.40554075	     98.02694792	     44.32960870	      0.00000000	      0.00000000	     -2.91176463	     -8.83775616	      6.23307581	     24.82457022	     45.13064733	      0.00000000	      0.00000000
     11.38664286	     -0.92349903	     -1.96468467	      2.42046140	      0.87034892	      0.92124347	      0.44583808	      5.50438255	     -3.26770279	     -9.43519785	     40.50474385	     40.50474385	     12.34138036	    -14.30804078	    -13.68451965	     23.45427025	     -2.48594858	     -4.76614711	     27.33668013	     27.33668013	      8.64568274	    -15.81800452	      3.29450648	     -7.51664529	      3.12538910	      2.79524013	     17.89658817	    -17.38316564	     -4.02212701	     97.27860798	     44.34015011	      0.00000000	      0.00000000	     -1.80952681	     -8.95254133	      6.20811073	     25.26625855	     45.15698526	      0.00000000	      0.00000000
     11.39871429	     -0.95342477	     -1.61659953	      2.37104719	      0.86960636	      0.92203439	      0.44332442	      7.57321670	     -4.30380144	     -9.60934489	     44.66604205	     44.66604205	     10.13494680	    -15.93448588	    -13.87443172	     22.73368869	     -1.98811167	     -5.06756847	     26.91449426	     26.91449426	      9.00512410	    -15.56534930	      2.99919865	     -7.42930169	      2.69614942	      2.52185474	     15.98359142	    -17.36282444	     -3.74994771	     96.27136375	     44.36219715	      0.00000000	      0.00000000	     -0.69170319	     -9.08463014	      6.15030713	     25.79218635	     45.18862085	      0.00000000	      0.00000000
     11.41078571	     -0.93911908	     -1.31171404	      2.33758933	      0.86878046	      0.92281410	      0.44082967	      9.63361860	     -5.34032048	     -9.87161127	     48.72225266	     48.72225266	      7.73616652	    -17.41777914	    -13.73442245	     21.96947473	     -1.52355857	     -5.30210067	     26.47885697	     26.47885697	      9.36267168	    -15.35651558	      2.64552237	     -7.40940056	      2.34834706	      2.28035352	     14.00361066	    -17.32927080	     -3.57231956	     95.13622004	     44.39099093	      0.00000000	      0.00000000	      0.48700988	     -9.21260451	      6.07279370	     26.40726051	     45.22371304	      0.00000000	      0.00000000
     11.42285714	     -0.93066700	     -0.99617524	      2.31864044	      0.86785824	      0.92351439	      0.43830701	     11.73387672	     -6.51538757	    -10.31500147	     52.69607364	     52.69607364	      5.48226892	    -18.31430684	    -13.03872293	     21.20480617	     -1.03472062	     -5.52728808	     26.00419449	     26.00419449	      9.67810916	    -15.15813656	      2.24762266	     -7.45110912	      1.98789102	      2.08069901	     11.95502772	    -17.26511957	     -3.48604913	     93.84651405	     44.42728811	      0.00000000	      0.00000000	      1.69478444	     -9.33691202	      5.97446082	     27.11958427	     45.26157865	      0.00000000	      0.00000000
     11.43492857	     -0.91904868	     -0.75227807	      2.30074819	      0.86682458	      0.92417700	      0.43598245	     14.06903176	     -7.40649124	    -10.37167429	     56.89732738	     56.89732738	      5.12031611	    -18.45457476	     -6.20472617	     20.37586836	     -0.61493397	     -5.66461757	     25.32372034	     25.32372034	      9.18813083	    -15.32819360	      0.26511139	     -7.41415766	      1.70273304	      2.24707769	      9.69702264	    -16.87258973	     -4.73477439	     91.95688577	     44.57287783	      0.00000000	      0.00000000	      2.89520708	     -9.44137835	      5.76989582	     28.57717230	     45.33465736	      0.00000000	      0.00000000
     11.44700000	     -0.87034294	     -0.50454616	      2.30410054	      0.86568784	      0.92483599	      0.43368823	     16.25710436	     -8.37643820	    -10.57431403	     60.61611894	     60.61611894	      4.45682683	    -18.74467645	     -0.97707372	     19.58662644	     -0.21573037	     -5.86892996	     24.81297959	     24.81297959	      9.25968289	    -15.14522876	     -0.56816330	     -7.47583550	      1.43560680	      2.07253663	      7.77504265	    -16.49180864	     -5.07182936	     89.88077977	     44.67880117	      0.00000000	      0.00000000	      4.08442001	     -9.63118440	      5.69256800	     29.70221255	     45.38011387	      0.00000000	      0.00000000
     11.45907143	     -0.80119103	     -0.16706520	      2.29876903	      0.86456279	      0.92550387	      0.43131018	     18.18926534	     -9.60344151	    -10.94384855	     63.67240963	     63.67240963	      2.90936775	    -19.01864726	      0.12089206	     18.78433047	      0.27985446	     -6.11209182	     24.35276208	     24.35276208	      9.62174749	    -14.78728558	     -0.83095228	     -7.60137215	      1.10995660	      1.81278707	      5.65790276	    -16.35693058	     -4.75755673	     88.44384920	     44.71067915	      0.00000000	      0.00000000	      5.36100553	     -9.77785486	      5.59793860	     30.46805788	     45.41562999	      0.00000000	      0.00000000
     11.47114286	     -0.73269734	     -0.06129313	      2.25702331	      0.86324824	      0.92626821	      0.42937673	     20.33272354	    -10.15317568	    -10.78411589	     66.69482518	     66.69482518	      3.68860348	    -19.05945306	      7.86100215	     17.96934982	      0.48898835	     -6.36880832	     23.77502710	     23.77502710	      9.54246553	    -14.54318681	     -1.95582364	     -7.69714209	      0.98542124	      1.64585993	      4.09984581	    -15.71032046	     -5.75459621	     84.92883669	     44.87730262	      0.00000000	      0.00000000	      6.37098601	     -9.95076215	      5.53344564	     32.30030892	     45.45295177	      0.00000000	      0.00000000
     11.48321429	     -0.60727473	      0.09193921	      2.22259825	      0.86205766	      0.92710336	      0.42741156	     22.11789415	    -10.91490973	    -10.88202596	     68.98604742	     68.98604742	      3.46890423	    -19.14396518	     10.77408044	     17.08141123	      0.74602697	     -6.61314482	     23.22604233	     23.22604233	      9.71490459	    -14.14138675	     -2.72832185	     -7.87522614	      0.86515208	      1.60257724	      2.31931003	    -15.46724974	     -5.65358242	     82.23884436	     44.97709151	      0.00000000	      0.00000000	      7.50898473	    -10.16450459	      5.52835503	     33.69802126	     45.48752279	      0.00000000	      0.00000000
     11.49528571	     -0.44716760	      0.19279112	      2.13924872	      0.86086978	      0.92809895	      0.42558623	     23.69455249	    -11.50522762	    -10.87846349	     70.67945348	     70.67945348	      3.07470995	    -19.22225533	     11.65790663	     16.14933289	      0.93382837	     -6.90827672	     22.67252033	     22.67252033	      9.99559044	    -13.63691875	     -3.11429059	     -8.09466817	      0.80458165	      1.74171047	      0.45553326	    -15.32336367	     -5.69672948	     79.37821416	     45.07128089	      0.00000000	      0.00000000	      8.83752400	    -10.19577046	      5.44330581	     34.91809913	     45.52538328	      0.00000000	      0.00000000
     11.50735714	     -0.34384290	      0.23659569	      2.02151580	      0.85962725	      0.92909202	      0.42403547	     25.27612604	    -11.86155946	    -10.72433466	     71.94887719	     71.94887719	      3.11205771	    -19.23709578	     12.83301096	     15.25713665	      1.02914632	     -7.29071692	     22.06113209	     22.06113209	     10.18919449	    -13.05945126	     -3.76361101	     -8.24556998	      0.76822792	      1.57317908	     -0.73507846	    -14.74539467	     -6.05252632	     75.40057198	     45.21567872	      0.00000000	      0.00000000	      9.85692265	    -10.42209994	      5.38618723	     36.41483608	     45.55851216	      0.00000000	      0.00000000
     11.51942857	     -0.22467621	      0.29036085	      1.83518792	      0.85841120	      0.93016147	      0.42265095	     26.71697763	    -12.08983781	    -10.42777246	     72.69566873	     72.69566873	      3.09995105	    -19.21912751	     12.92923592	     14.29748507	      1.14815464	     -7.65207955	     21.37155663	     21.37155663	     10.45981355	    -12.51445877	     -3.99827585	     -8.45631858	      0.74694618	      1.91014498	     -2.61440489	    -14.75262322	     -5.82273794	     72.76924609	     45.28816706	      0.00000000	      0.00000000	     11.20391229	    -10.38911852	      5.24828556	     37.63495317	     45.60009529	      0.00000000	      0.00000000
     11.53150000	     -0.05044466	      0.23858027	      1.59688250	      0.85728179	      0.93134699	      0.42157094	     27.96846903	    -12.06277697	    -10.08567648	     72.95142558	     72.95142558	      3.22330793	    -19.15077222	     12.88834804	     13.26931417	      1.12009296	     -8.08636233	     20.67316105	     20.67316105	     10.68751484	    -11.87895082	     -4.37242486	     -8.69733513	      0.76936332	      2.20326060	     -4.01732858	    -14.58032053	     -5.79915048	     69.17577812	     45.40160525	      0.00000000	      0.00000000	     12.42652921	    -10.37728894	      5.12483613	     39.00557037	     45.63936896	      0.00000000	      0.00000000
     11.54357143	      0.02444074	      0.15423346	      1.39975154	      0.85617205	      0.93243494	      0.42055576	     29.15546518	    -11.90339377	     -9.71364446	     72.68342019	     72.68342019	      3.28748569	    -19.07259663	     12.31829618	     12.33507825	      1.05014437	     -8.59825722	     19.93874445	     19.93874445	     10.77046393	    -11.13272483	     -5.30227564	     -8.75681673	      0.88101815	      1.46131975	     -3.65298480	    -13.63943758	     -6.05603239	     62.41281875	     45.63406692	      0.00000000	      0.00000000	     12.75497548	    -10.98477235	      4.88527986	     41.16851884	     45.69231386	      0.00000000	      0.00000000
